<?xml version="1.0" encoding="UTF-8"?>
<svg version="1.1" viewBox="0 0 2048 560" width="2280" height="624" xmlns="http://www.w3.org/2000/svg">
<path transform="translate(847,61)" d="m0 0 10 1 4 2v2l3 1 3 5 1 57v74l6-2 2-1 1-3 4-4h2v-2l19-13 10-5 15-5 14-3 8-1h24l18 3 15 5 16 8 12 8 9 7 7 8v2l3 1 3 3v4l3 1 7 10 3 5 2 6 4 10 1 8h2l2 16 2 6v27l-2 7-1 12-3 5-2 7-1 1-1 7-2 2-2 5-5 9-4 6-2 1-1 3-2 1-1 3-4 4h-2l-2 4-3 3h-2v2l-17 12-16 8-14 5-11 3-16 2h-18l-21-3-16-5-16-7-18-12-7-6v-2l-4-2-2-4-3-1-7-9v-3l-3-1v-4l-3-1-2-5-5-10-3-7-2-7-1-1-1-12-2-6v-233l2-2 2-5 7-4zm105 134-19 3-14 5-13 7-10 8-7 8-5 5-1 4-3 1-2 5-4 8-3 7-3 11-1 11v26l1 7 2 5 2 6 4 9 2 5 6 9 9 11 4 4h2l1 3 14 9 11 5 14 4 9 1h16l18-3 15-6 14-8v-2l4-2 3-2v-2l3-1v-2l3-1 3-3 1-3 2-1 1-5h2l1-4 3-1 2-6 3-8 1-1 1-9 2-3v-41l-2-4-1-8-2-2-2-7-3-6-4-6-2-4-5-5-2-3h-2l-1-3h-2l-1-3-7-5h-2v-2l-11-6-16-6-10-2z" fill="#222"/>
<path transform="translate(1240,164)" d="m0 0h25l14 2 17 5 16 8 16 11 4 5 6 5v3l3 1v3l3 1v3l3 1 1 4 3 3v3h2l3 7 1 1 1 7 2 2 1 7 2 2 2 14 2 8v17l-1 4-2 1-1 4-7 4-187 1 2 7 1 10 3 7 2 5 1 1v5h2l3 6 1 4 3 1 1 3 5 5 8 7 9 7 12 6 17 5 6 1h27l18-4 13-5 7-4h2v-2l12-7h14l3 2v2l3 1 3 5v10l-4 5h-2v2l-15 10-17 8-18 6-15 3-10 1h-15l-22-3-17-5-16-8-11-6-4-3v-2l-4-2-3-2v-2l-3-1-7-8-6-7v-3l-3-1-3-5-1-4-2-1-1-6h-2l-1-8h-2l-2-9-2-3-1-11-2-2v-47l1-2h2v-11l2-4 2-8 2-3 4-12 2-1 2-5h2l1-4 3-6h2l1-4 4-4h2l1-3h2l2-4 12-10 14-8 14-6 15-4zm3 31-15 3-11 4-14 8v2l-3 1v2l-4 2-6 6v2h-2l-5 9-2 1-1 4-2 1-1 7h-2l-2 9-2 4v11h162l1-3-2-4-1-10-2-2-2-9-6-12h-2l-2-5-6-8h-2l-1-3-4-3h-2v-2l-13-8-14-5-11-2z" fill="#222"/>
<path transform="translate(235,46)" d="m0 0 2 2 4 29v33l2 6 1 26 2 5 1 14 3 7 1 7 2 2 2 7 2 5 2 1 2 5 8 11v2l3 1v2l3 1 4 5 3 2v2l5 2 9 6 14 7 15 5 22 3 83 7 9 1 2 2-18 2-73 6-23 3-17 5-16 8-10 7h-2v2l-6 5-5 6h-2l-2 4-7 10-3 5-2 5-3 8-1 1-2 9-2 3-1 16-2 4-1 25-2 9-1 36-1 1-1 16-2 8h-2l-1-3-1-35-1-1-2-25v-10l-2-5-1-27-2-3-1-14h-2l-2-7-2-5v-3h-2l-3-7-2-4-2-1-4-7-3-3v-2l-3-1v-2l-3-1v-2l-3-1v-2l-4-2-15-10-16-7-14-4-28-3-75-6-7-1 1-2 30-3 71-6 21-5 12-5 11-6 8-6h2v-2l4-3h2l1-3h2l2-4 4-4 2-4h2l1-4 4-6 2-5 3-8h2l1-7 2-3 1-11 2-3 1-27 2-5 1-38 2-7 1-24z" fill="#232323"/>
<path transform="translate(1792,166)" d="m0 0h10l6 5 6 11 3 6 4 9 2 5 2 7h2l3 7 3 6 1 1v6l3 1 2 6 3 7 2 5 2 1 1 7h2l3 7 11 22v4h2l6 14 2 6 2 1 1 7h2l1 6h2l3 7 4 6 1 7h2l1 9 5 1 2-1 4-8 2-5h2v-6l2-2 5-13h2l2-7 3-6 3-7 4-8 2-7h2l2-7h2v-6l2-2 2-6h2l1-7h2l1-6h2l1-8 2-1 1-6 2-1 2-6 3-6 2-2 1-6h2l1-7 2-2 2-6 3-6h2l1-7 4-8 2-5 5-4 4-2h10l6 3 4 3 3 6v6l-2 3-2 7h-2l-1 6-2 2-2 6-6 14-4 8-2 7h-2l-2 7-5 12-1 2h-2v5l-2 2-3 7-2 7h-2l-2 7-3 7-8 16-2 5-3 7-4 8-5 13-8 16-2 5-3 6-4 9-2 6h-2l-1 7-2 2-4 11-2 2-6 14-3 6-6 14-5 10-4 11-2 2-2 6h-2l-1 7-5 8-2 6-6 14h-2l-1 7h-2l-2 4h-2v2l-3 1h-7l-9-3-6-6v-14h2l1-7 2-2 2-7h2l1-5h2l1-7 2-2 2-6 2-7 2-1 2-5 3-8 6-14 2-1 2-6 6-14 1-1v-11l-2-2v-5l-3-1-1-6-2-1-2-5-2-7h-2l-3-7-1-1v-6l-3-1-3-5-2-6-2-4v-3h-2l-1-7-3-1v-4l-3-1-2-7-3-7-2-7h-2l-1-6-3-1v-5l-3-1-2-6-3-7-2-6h-2l-9-21-5-9-3-5v-5l-3-1-2-6-3-6-3-7-5-9v-5h-2l-1-2v-16l9-6z" fill="#242424"/>
<path transform="translate(1657,88)" d="m0 0 10 1 7 4 3 5 1 76 53 1 7 2 3 3v3l3 1v12l-4 6-6 3-8 1h-40l-8 1v122l2 5 1 10 3 6v3h2l1 5h2l4 5v2l4 2 9 5 8 3 8 1 21 1 7 4 3 5 1 1v13l-1 2h-2l-1 4-5 4-9 2h-13l-16-2-13-4-10-5-14-10v-2l-6-3-1-3-2-1-1-3-2-1-1-5h-2l-3-6-2-5-2-1-1-8-2-2-1-14-2-6-1-7v-117l-3-1h-20l-10-1-8-5-2-6-1-1v-5l4-8h2l1-3 7-2 31-1-1-4v-50l1-19 2-2 2-5 5-4z" fill="#242424"/>
<path transform="translate(579,61)" d="m0 0h7l9 3 4 4 3 6 1 83v174l3 25 2 4v5l3 1 1 3 6 5 7 2 18 1 6 3 1 3 3 1 2 6 1 1v6l-2 2-1 5-8 6-10 2-17-1-13-4-12-7-1-3-3-1v-2l-3-1-4-5-3-3-2-5-3-6-4-9-2-12-2-5v-275l4-7 6-4z" fill="#232323"/>
<path transform="translate(1530,163)" d="m0 0h16l16 4 9 4 3 3 2 10-2 7-6 5-4 1h-41l-16 3-13 5-10 6h-2l-1 3-4 3h-2l-1 3h-2v3l-2 1-2 4h-2l-1 6h-2v7l-2 4-1 7-1 147-4 8h-2v2l-12 3-8-2-6-4-3-4v-227l2-1 1-3 7-4 4-1h8l8 4 2 2 1 5 2 1 1 17 6-2 5-5 4-2 1-3 12-8 16-7 16-4z" fill="#212121"/>
<path transform="translate(721,166)" d="m0 0h9l9 3 1 3 2 1 1 3 1 12v204l-2 12-5 5-4 2h-13l-7-5v-2h-2l-1-2v-226l4-6z" fill="#1E1E1E"/>
<path transform="translate(720,71)" d="m0 0h14l8 4 7 7 2 7 1 1v10l-2 2-2 7h-2l-1 3-8 6-2 1h-15l-9-4-4-4v-3l-3-1-2-6-1-2v-9l2-3 1-5 2-1 2-4 9-5z" fill="#242424"/>
<path transform="translate(600,72)" d="m0 0 2 2 1 83v174l3 28-2-2-3-13z" fill="#FEFEFE"/>
<path transform="translate(1458,178)" d="m0 0h1l1 17 4 1-5 6h-1z" fill="#FEFEFE"/>
</svg>
